<?xml version="1.0" encoding="utf-8"?>
<svg viewBox="113.9143 86.092 95.1675 36.5" width="95.168" height="36.5" xmlns="http://www.w3.org/2000/svg">
  <defs/>
  <path d="M 126.47 108.37 Q 126.47 110.98 124.85 112.6 Q 123.23 114.22 120.62 114.22 Q 117.83 114.22 116.42 112.33 Q 115.04 110.38 114.71 108.37 Q 114.38 106.24 114.38 104.92 Q 114.38 103.6 114.49 102.28 Q 114.59 100.96 114.86 99.36 Q 115.13 97.75 115.66 96.42 Q 116.18 95.08 116.93 93.93 Q 117.68 92.77 118.87 92.11 Q 120.05 91.45 121.21 91.45 Q 122.36 91.45 122.89 91.6 Q 123.41 91.75 123.64 91.75 Q 123.86 91.75 124.39 91.51 Q 124.91 91.27 125.68 91.27 Q 126.44 91.27 126.44 91.9 Q 126.44 91.93 126.2 93.21 Q 125.96 94.48 125.96 95.82 Q 125.96 97.15 126.2 97.59 Q 126.44 98.02 126.44 98.41 Q 126.44 99.16 125.75 99.58 Q 125.06 100 124.25 100 Q 122.15 100 122.15 97.84 Q 122.15 97.36 122.33 96.55 Q 122.51 95.74 122.51 95.5 Q 122.51 94.87 121.82 94.87 Q 120.86 94.87 119.9 96.61 Q 118.79 98.62 118.79 102.49 Q 118.79 104.17 119.15 105.49 Q 119.84 107.98 121.43 107.98 Q 122.81 107.98 123.56 106.48 Q 123.89 105.76 124.67 105.76 Q 125.45 105.76 125.96 106.63 Q 126.47 107.5 126.47 108.37 Z M 131.75 98.53 L 131.6 102.43 Q 131.6 106.75 133.1 106.75 Q 133.88 106.75 134.3 106.03 Q 134.81 105.13 134.91 104.34 Q 135.02 103.54 135.08 103.03 Q 135.14 102.52 135.17 101.73 Q 135.2 100.93 135.2 100.42 L 135.2 99.1 Q 135.2 96.43 134.9 95.05 Q 134.78 94.78 134.78 94.36 Q 134.78 93.16 136.28 92.25 Q 137.78 91.33 138.92 91.33 Q 140.06 91.33 140.06 92.29 Q 140.06 92.53 139.85 93.58 Q 139.64 94.63 139.46 96.49 Q 139.28 98.35 139.25 99.69 Q 139.22 101.02 139.2 102.96 Q 139.19 104.89 139.14 106.56 Q 139.1 108.22 138.57 109.78 Q 138.05 111.34 137.33 112.17 Q 136.61 112.99 135.65 113.47 Q 134.21 114.22 132.48 114.22 Q 130.76 114.22 129.48 113.16 Q 128.21 112.09 127.74 110.61 Q 127.28 109.12 127.28 107.29 L 127.43 100.24 L 127.43 98.71 L 127.4 97.06 Q 127.4 95.86 126.86 95.14 Q 126.5 94.78 126.5 94.3 Q 126.5 93.13 128.24 92.23 Q 129.98 91.33 131.15 91.33 Q 132.32 91.33 132.32 92.17 Q 132.32 92.23 132.2 93.31 Q 131.78 96.97 131.75 98.53 Z M 152.44 108.37 Q 152.44 110.98 150.82 112.6 Q 149.2 114.22 146.59 114.22 Q 143.8 114.22 142.39 112.33 Q 141.01 110.38 140.68 108.37 Q 140.35 106.24 140.35 104.92 Q 140.35 103.6 140.46 102.28 Q 140.56 100.96 140.83 99.36 Q 141.1 97.75 141.63 96.42 Q 142.15 95.08 142.9 93.93 Q 143.65 92.77 144.84 92.11 Q 146.02 91.45 147.18 91.45 Q 148.33 91.45 148.86 91.6 Q 149.38 91.75 149.61 91.75 Q 149.83 91.75 150.36 91.51 Q 150.88 91.27 151.65 91.27 Q 152.41 91.27 152.41 91.9 Q 152.41 91.93 152.17 93.21 Q 151.93 94.48 151.93 95.82 Q 151.93 97.15 152.17 97.59 Q 152.41 98.02 152.41 98.41 Q 152.41 99.16 151.72 99.58 Q 151.03 100 150.22 100 Q 148.12 100 148.12 97.84 Q 148.12 97.36 148.3 96.55 Q 148.48 95.74 148.48 95.5 Q 148.48 94.87 147.79 94.87 Q 146.83 94.87 145.87 96.61 Q 144.76 98.62 144.76 102.49 Q 144.76 104.17 145.12 105.49 Q 145.81 107.98 147.4 107.98 Q 148.78 107.98 149.53 106.48 Q 149.86 105.76 150.64 105.76 Q 151.42 105.76 151.93 106.63 Q 152.44 107.5 152.44 108.37 Z M 163.93 106.8 Q 163.93 106.8 164.17 107.49 Q 164.41 108.19 165.07 109.5 Q 165.73 110.8 166.32 111.15 Q 166.9 111.49 166.9 112.06 Q 166.9 113.05 165.48 113.79 Q 164.05 114.52 163.26 114.52 Q 162.46 114.52 162.07 114.24 Q 161.68 113.95 161.34 113.2 Q 160.99 112.45 160.36 109.95 Q 159.73 107.44 159.34 105.43 L 158.92 103.39 Q 158.77 102.67 158.43 102.67 Q 158.08 102.67 157.84 103.51 Q 157.6 104.35 157.6 104.74 Q 157.6 109.75 157.99 111.79 Q 158.05 111.97 158.05 112.21 Q 158.05 113.32 156.55 114.03 Q 155.05 114.73 153.96 114.73 Q 152.86 114.73 152.86 113.74 L 152.95 113.17 Q 153.7 107.74 153.7 101.8 L 153.55 97.09 Q 153.49 96.04 152.98 95.59 Q 152.47 95.11 152.47 94.63 Q 152.47 93.55 154.18 92.56 Q 155.89 91.57 156.87 91.57 Q 157.84 91.57 157.9 92.56 Q 157.57 95.86 157.57 98.17 Q 157.57 99.1 157.87 99.1 Q 158.02 99.1 158.14 98.89 Q 158.56 98.05 159.52 96.52 Q 160.48 94.99 161.19 94.02 Q 161.89 93.04 162.72 92.23 Q 163.54 91.42 164.08 91.42 Q 164.98 91.42 165.55 92.41 Q 166.12 93.4 166.12 94.33 Q 166.12 95.35 164.91 95.35 Q 163.69 95.35 162.25 97.69 Q 161.89 98.11 161.89 98.8 Q 161.89 99.49 162.03 100.05 Q 162.16 100.6 162.31 101.26 Q 162.46 101.92 162.96 103.66 Q 163.45 105.4 163.93 106.8 Z M 172.93 91.21 Q 174.4 91.21 175.72 92.14 Q 179.35 94.69 179.35 103.36 Q 179.35 107.14 177.82 110.53 Q 177.07 112.24 175.66 113.29 Q 174.25 114.34 172.56 114.34 Q 170.86 114.34 169.68 113.61 Q 168.49 112.87 167.79 111.76 Q 167.08 110.65 166.63 109.21 Q 165.88 106.78 165.88 104.43 Q 165.88 102.07 166.21 100.09 Q 166.54 98.11 167.26 96.01 Q 167.98 93.91 169.45 92.56 Q 170.92 91.21 172.93 91.21 Z M 173.26 94.87 Q 172.33 94.87 171.54 96.46 Q 170.74 98.05 170.34 100.12 Q 169.93 102.19 169.93 104.02 Q 169.93 105.85 170.46 106.84 Q 170.98 107.83 171.82 107.83 Q 173.11 107.83 174.06 105.58 Q 175 103.33 175 99.1 Q 175 94.87 173.26 94.87 Z M 187 91.21 Q 188.47 91.21 189.79 92.14 Q 193.42 94.69 193.42 103.36 Q 193.42 107.14 191.89 110.53 Q 191.14 112.24 189.73 113.29 Q 188.32 114.34 186.62 114.34 Q 184.93 114.34 183.74 113.61 Q 182.56 112.87 181.85 111.76 Q 181.15 110.65 180.7 109.21 Q 179.95 106.78 179.95 104.43 Q 179.95 102.07 180.28 100.09 Q 180.61 98.11 181.33 96.01 Q 182.05 93.91 183.52 92.56 Q 184.99 91.21 187 91.21 Z M 187.33 94.87 Q 186.4 94.87 185.6 96.46 Q 184.81 98.05 184.4 100.12 Q 184 102.19 184 104.02 Q 184 105.85 184.52 106.84 Q 185.05 107.83 185.89 107.83 Q 187.18 107.83 188.12 105.58 Q 189.07 103.33 189.07 99.1 Q 189.07 94.87 187.33 94.87 Z" style="fill: rgb(51, 51, 51); text-transform: uppercase;"/>
  <path d="M 203.96 102.28 Q 204.62 104.53 205.8 106.77 Q 206.99 109 207.92 109.45 L 208.34 109.63 Q 208.76 109.78 208.91 109.93 Q 209.06 110.08 209.06 110.38 Q 209.06 111.61 207.44 112.98 Q 205.82 114.34 204.62 114.34 Q 204.08 114.34 203.69 114.06 Q 203.3 113.77 203.15 113.47 L 203.03 113.17 Q 202.73 112.75 202.04 110.8 Q 201.35 108.85 200.78 106.72 Q 200.69 106.42 200.57 106.42 Q 200.39 106.42 200.27 106.66 Q 199.37 108.37 198.2 111.43 L 197.84 112.36 Q 197.15 114.04 194.94 114.04 Q 192.74 114.04 192.74 113.14 Q 192.74 112.75 193.25 112.18 Q 194.24 111.22 195.63 108.7 Q 197.03 106.18 197.93 104.14 L 198.8 102.1 Q 198.95 101.71 198.95 101.29 L 198.86 100.69 Q 197.87 96.49 195.98 95.08 Q 195.35 94.6 195.35 94 Q 195.35 92.98 196.79 92.13 Q 198.23 91.27 199.35 91.27 Q 200.48 91.27 200.84 92.41 Q 201.38 93.7 202.19 96.49 Q 202.31 96.82 202.49 96.82 Q 202.67 96.82 202.79 96.55 Q 204.02 93.88 204.35 92.59 L 204.44 92.32 Q 204.5 92.14 204.89 91.78 Q 205.28 91.42 206.01 91.17 Q 206.75 90.91 207.83 90.91 Q 209.51 90.91 209.51 91.66 Q 209.51 92.02 209.18 92.38 Q 208.85 92.74 208.37 93.33 Q 207.89 93.91 206.57 96.1 Q 205.25 98.29 204.08 100.93 Q 203.9 101.32 203.9 101.73 Q 203.9 102.13 203.96 102.28 Z" style="fill: rgb(225, 48, 48); text-transform: uppercase; stroke-width: 2px;"/>
</svg>